<?xml version="1.0" encoding="utf-8"?>
<!-- Generator: Adobe Illustrator 26.0.1, SVG Export Plug-In . SVG Version: 6.00 Build 0)  -->
<svg version="1.1" id="Layer_1" xmlns="http://www.w3.org/2000/svg" xmlns:xlink="http://www.w3.org/1999/xlink" x="0px" y="0px"
	 viewBox="0 0 472 173" enable-background="new 0 0 472 173" xml:space="preserve">
<g>
	<path fill="#FFFFFF" d="M45.751,55.826c-0.18-1.35-0.09-3.6-0.27-5.67c0-1.979,0.45-3.96-0.09-5.399c-0.09-1.17,0.81-2.25,0-3.24
		c-0.18-1.529-0.18-3.6-0.09-4.859c0-0.9,0.18-3.87,0.09-5.13c0-0.99,1.08-2.34-0.09-3.42c-0.27-1.26,0.45-1.71-0.18-3.689
		c-0.18-1.351,0.54-2.79,0-4.14c-0.72-1.08,0.09-3.78-0.18-5.76c-0.09-1.44-1.08-2.25-2.79-2.25c-1.44,0.27-2.88,0-4.68,0.09
		c-1.35,0.09-3.06-2.7,0.27-3.061c0.9-0.09,1.62,0.36,2.7,0c1.08-0.09,2.25,0.54,3.96,0.181c0.81-0.36,2.61,0.09,3.96,0.18
		c1.17-0.27,2.43,0.81,3.06-0.09c0.99-0.09,3.15,0.18,5.13,0.09c1.08-0.54,2.52,0.45,4.14,0c1.44-0.45,2.25,0.09,3.15-0.09
		c1.08-0.271,2.52-0.271,4.32-0.271c1.26,0,1.8,3.061-0.9,2.971c-1.44-0.091-1.62,0.18-3.33,0c-1.53-0.181-2.43,0.18-3.06,0.09
		c-1.98,0-2.25,1.8-2.34,2.609c0,2.34,0.18,3.87,0,5.58c0,1.62,0.09,2.52,0,4.229c-0.45,1.98-0.09,3.24,0,4.23
		c-0.27,1.8,0.36,3.239,0.09,4.229c0,1.17-0.54,2.61,0,4.229c0.54,1.53-0.36,2.7,0,4.23c0.27,1.979-1.08,2.43,0,4.14
		c0.18,2.069-0.63,2.7,0.09,4.59c0.81,2.25-0.45,3.239,0.18,4.68c0.9,1.71-0.54,2.25,0.45,4.59c0.54,0.99,1.17,3.42,1.08,4.14
		c-0.09,1.35,0.81,3.15,1.8,3.6c0.81,0.99,1.35,1.98,2.79,2.88c1.53,1.17,2.7,1.08,3.96,1.891c0.9,0.54,3.78,0.54,5.31,0.63
		c1.44,0.27,2.79-0.45,4.859-0.54c1.8-0.18,2.79-1.26,4.41-1.71c1.17-1.26,2.16-1.17,3.6-2.88c0.36-0.9,2.16-3.06,2.43-4.23
		c0.09-1.35,0.99-3.6,1.44-5.579c0.54-2.43,0.18-3.51,0.72-6.03c0.18-2.609-0.45-4.59,0.18-6.209c0-2.07-0.09-3.96,0.09-5.76
		c0.09-1.98,0.27-2.971,0-4.5c0.36-1.891,0-2.521,0.09-4.5c0.81-2.43-0.27-2.7,0.09-4.59c0.27-1.35-0.36-2.97,0-4.5
		c0.09-0.45,0.09-2.16,0.09-2.97c-0.54-0.81,0.09-3.42-0.45-4.41c-0.45-0.899-0.72-1.529-1.709-2.069
		c-0.45-0.36-1.71,0.18-3.42-0.09c-0.99,0-1.53,0-3.15-0.091c-2.16-0.09-1.62-2.97,0-2.789c2.43,0.27,3.24,0,4.59,0.09
		c1.35,0.09,3.24,0,5.399,0.18c1.8-0.45,4.05,0,5.58-0.18c0.99-0.09,1.98-0.181,4.41,0c1.35-0.271,1.8,2.97,0.27,2.699
		c-1.62-0.09-2.16,0.181-3.15,0c-1.08-0.27-1.44-0.18-2.88,0c-2.34,0.54-1.8,0.99-2.43,2.16c-0.63,1.08,0.36,1.71-0.18,2.43
		c-0.72,1.08,0.18,1.44,0,2.61c-0.54,1.17-0.09,1.35-0.09,2.43c0,0.811-0.09,3.24,0,3.87c-0.54,1.62,0.18,2.7,0,3.96
		c-0.45,1.17-0.27,2.609,0,3.869c-0.09,0.9,0,3.24,0,3.87c-0.09,2.43,0,6.479-0.18,8.55c-0.63,1.17-0.09,1.53,0,2.79
		c-0.09,1.8-0.09,3.6-0.36,5.67c0,2.34-0.63,3.51-0.72,5.579c0.18,2.16-1.17,3.24-1.08,4.141c-0.27,0.72-1.35,2.43-1.71,3.51
		c-0.09,1.26-1.62,1.439-2.16,2.79c-1.17,1.439-1.8,0.81-2.61,2.249c-0.9,0.631-2.43,1.44-3.15,1.71
		c-0.99,0.99-1.71,0.091-3.51,1.17c-1.71,0.9-2.34,0-3.87,0.721c-0.9,0.449-3.33-0.271-4.23,0.18c-1.62,0.27-4.23,0.09-6.57-0.36
		c-1.26,0-1.71-1.529-3.24-0.63c-1.71-0.63-2.52-0.72-3.15-0.899c-1.08-0.09-1.8-0.9-2.88-1.351c-1.8-0.27-1.08-1.529-2.7-1.71
		c-1.17-0.09-1.17-1.979-2.43-2.25c-1.17-0.989-1.53-1.979-1.89-2.789c-0.63-1.71-1.26-3.15-1.979-4.95L45.751,55.826z"/>
	<path fill="#FFFFFF" d="M160.048,75.086c-0.99,0-1.62,0.09-2.7,0c-0.99-0.091-2.16,0.27-3.24,0.09c-2.34-0.09-2.88-0.36-4.95-0.271
		c-1.53,0.721-2.61,0.181-3.959,0.181c-0.36,0-1.08-0.45-1.62,0.09c-0.81,0.09-1.62,0.09-2.52,0c-1.17-0.181-1.89,0.18-2.79,0
		c-1.44-0.36-1.08-2.7,0.18-2.88c1.44,0.09,2.16,0.27,3.06-0.18c0.9-0.631,0.9-2.341,0.72-4.86c0.09-1.26-0.18-2.25,0.18-3.42
		c0.36-1.17-0.45-2.16,0-2.88c0.63-0.899-0.54-1.439-0.09-2.16c0.99-1.71-0.54-2.43,0.18-3.869c0.45-0.99,0-1.891-0.27-2.61
		c-0.09-1.71-0.27-4.68,0-6.659c0.18-2.16-0.36-3.96-0.81-5.851c-0.27-1.17-1.44-0.989-1.62-1.71c-0.27-0.539-2.25-0.359-3.24-0.899
		c-1.08,0.18-2.34,0.36-3.42,0.899c-0.72,0.271-2.7,0.99-3.24,1.53c-1.53,1.17-2.25,1.98-2.52,2.97c-0.18,1.8,0.54,2.97,0,3.69
		c-0.45,1.17-0.27,3.06,0,3.689c0.54,0.72-0.45,2.34,0,3.78c-0.18,0.899,0.45,3.06,0,3.689c-0.54,1.62,0.18,1.89,0,3.689
		c-0.36,1.261-1.44,1.62-0.09,3.33c0,1.351,0,3.061,0.09,4.95c0.09,1.8,0.45,2.34,1.44,2.609c0.27,0.271,0.99,0.181,1.44,0.271
		c0.45,0.18,1.26-0.271,1.62,0.27c0.9,0.63,0.99,2.7-1.26,2.61c-1.89-0.09-2.43-0.271-4.32,0c-2.25,0-3.24-0.54-5.67-0.181
		c-1.62,0.271-2.61-0.27-4.68,0.181c-1.26,0.09-2.34-0.09-3.51-0.09c-0.81,0-1.53,0.18-2.52,0.09c-0.9,0-1.89-1.26-0.54-2.34
		c0.36-0.63,1.26-0.181,1.98-0.36c0.81-0.18,1.62,0,2.34-0.09c0.36,0,1.08-0.18,1.35-0.81c0.27-0.721,0.72-1.71,0.45-2.521
		c-0.18-1.979,0-3.779,0-6.119c1.35-1.71-0.36-2.16,0-4.141c0.18-1.439,0.09-3.149,0-4.59c-0.36-1.26,0.09-2.43,0-4.499
		c-0.18-1.53-0.45-2.431,0-4.5c-0.09-1.8,0.09-3.87,0-5.13c-0.09-1.71-0.54-2.79-1.53-3.06c-1.17-0.36-1.62-0.181-2.97-0.271
		c-1.44,0.271-1.98-2.25-0.27-2.7c0.99-0.18,1.98,0,3.96-0.27c1.62-0.36,2.34,0.09,3.33-0.271c1.62-0.09,2.97,0,4.05-0.539
		c1.53-0.181,1.8-0.181,3.24-0.631c1.26-0.359,1.89,0.36,2.16,0.99c0.18,0.72-0.27,2.34-0.09,4.05c0.09,1.17,0.99,1.08,1.62,0.271
		c0.99-0.811,2.88-2.431,4.14-2.7c0.81-0.54,2.61-1.26,3.6-1.8c0.63-0.271,2.07,0.18,3.51-0.36c0.99,0,2.43-0.63,3.42,0.09
		c0.81,0.63,2.7,0,3.69,0.9c1.26,1.439,1.71,0.63,2.61,1.439c0.81,0.721,1.8,2.16,2.79,2.88c0.72,0.271,0.27,1.351,1.17,2.7
		c0.36,0.9,0.36,2.16,0.54,2.97c0.27,2.88-0.81,3.42,0.27,4.771c0.18,1.979,0.27,4.409-0.09,6.839c0,2.521-0.54,4.05,0,5.58
		c0,2.79,0,6.93,0.09,9.18c0.09,1.8,0.36,2.07,1.62,2.16c0.63,0,1.44-0.09,1.98,0c0.72,0.09,0.99-0.09,1.62,0.18
		C161.308,73.016,160.948,75.086,160.048,75.086z"/>
	<path fill="#FFFFFF" d="M165.359,59.336c-0.27-0.899-0.27-3.51-0.45-5.399c1.26-1.17-0.18-2.16,0.45-3.6
		c0.45-1.891,0.63-2.25,1.35-4.141c0-1.079,1.35-2.52,1.98-3.779c0.36-1.26,1.44-2.25,2.7-3.24c1.35-1.529,2.16-1.26,3.33-2.699
		c0.63-0.36,2.25-1.44,3.78-1.98c1.44-0.99,2.34-0.54,4.14-1.26c1.53-0.72,2.34-0.81,4.5-0.45c0.9-0.27,3.87-0.09,5.31,0.63
		c2.16,1.08,3.15,0.54,4.77,1.8c1.44,0.54,3.06,2.16,3.959,3.24c0.9,1.08,1.71,3.33,1.62,5.49c-0.81,0.989,0.18,1.71-1.44,2.97
		c-0.27,1.26-1.98,1.979-3.51,1.439c-1.08,0.09-2.7-0.45-3.33-1.17c-0.45-0.63-1.35-2.34-1.08-2.97c0.09-0.81,0.36-1.8,0.9-2.79
		c0.63-0.27,0.99-0.81,0.99-2.069c0.18-2.07-1.8-2.7-2.61-3.15c-1.17-0.18-3.06-0.99-4.32-0.899c-0.9-0.181-2.97,0.63-4.32,0.989
		c-1.08,0.09-2.52,1.98-3.33,2.88c-0.45,1.62-0.63,2.7-1.53,3.601c-0.72,0.81-0.18,2.699-0.9,4.05c-0.63,0.989,0.18,3.239-0.45,4.14
		c-0.36,1.979-0.45,2.88-0.09,3.87c0.54,2.34-0.18,3.869,0.45,6.209c0.36,0.721,0.09,2.16,0.63,3.15c0.18,0.72,0.99,2.069,1.08,2.79
		c-0.09,0.72,0.27,1.89,1.53,2.34c0.63,0.54,1.53,1.439,2.07,1.979c1.17,0.45,1.53,1.71,2.61,1.44c0.63,0,1.8,0.81,3.33,0.449
		c1.26-0.09,2.88-0.449,3.6-0.449c0.63-0.091,2.34-0.9,3.15-1.261c0.45-0.359,1.62-0.63,2.88-1.979c0.54-0.63,1.08-0.99,1.8-1.71
		c0.9-1.17,2.7,0.45,2.25,1.35c-1.17,1.891-1.71,2.07-3.15,3.15c-1.89,1.439-3.149,1.439-3.959,2.25
		c-0.81,0.989-2.88,1.439-4.5,1.35c-1.8,0.63-2.61,0.72-4.95,0.45c-1.53-0.09-3.06-0.09-4.41-0.36c-1.71,0-3.33-0.99-4.14-1.26
		c-0.99-0.36-2.79-1.439-3.69-1.89c-1.35-1.26-2.52-1.08-3.15-2.61c-0.27-1.62-2.25-1.439-2.61-3.149c-0.27-1.8-1.53-1.71-1.98-3.69
		L165.359,59.336z"/>
	<path fill="#FFFFFF" d="M231.148,75.086c-1.62,0-3.42-0.091-5.669,0c-2.25,0.09-4.68,0-7.83,0.09c-0.72-1.08-1.26,0.18-3.33-0.09
		c-2.61,0.09-3.78,0.18-5.49,0.09c-1.17,0.09-1.98-2.79,0.36-2.79c1.08,0.09,1.71,0,2.97,0c1.08-0.27,1.62-0.54,1.62-1.08
		c0.27-2.52,0.36-4.59,0.36-6.479c-0.45-2.25,0.63-3.78,0.09-6.03c0.27-1.979,0.27-3.6,0-5.85c1.53-2.52-0.09-2.16,0-3.869
		c0.18-1.801,0-6.12,0-8.01c1.17-2.61-0.36-2.79,0.18-5.4c0.72-2.34-0.27-4.409,0.27-6.659c0.45-1.8-0.99-2.7-0.45-4.771
		c0.72-2.609,0-4.499,0-7.919c-0.09-2.25,0.27-3.78-1.35-3.87c-1.17-0.09-2.61-0.18-3.51-0.271c-2.16-0.449-1.62-2.88-0.18-2.97
		c2.16-0.359,2.61-0.09,4.5-0.18c1.08-0.09,1.71-0.72,3.689-0.36c1.35,0.271,2.25-0.63,3.06-0.72c1.8-0.36,2.52-1.17,4.14-1.53
		c0.9-0.63,2.61,0.45,2.34,1.71c-0.09,2.431-0.63,3.061-0.54,5.49c0,1.979-0.09,6.569-0.09,8.1c-0.99,1.439,0.18,2.34,0,4.95
		c-0.36,2.609,0.09,3.869,0,6.479c-0.63,1.8,0,4.229,0,6.479c-0.09,2.16-0.27,4.59,0,6.479c-0.54,1.891,0.27,4.5,0,6.48
		c-0.27,1.979-0.18,3.959,0,6.569c0.18,1.53-0.9,2.43,0,4.14c0,2.07,0.45,4.5,0.18,5.939c-0.27,2.431,0.9,3.511,2.07,2.971
		c1.26,0.18,1.53,0.09,2.79,0.09C232.768,72.296,232.948,75.176,231.148,75.086z"/>
	<path fill="#FFFFFF" d="M250.677,53.397c-0.27,1.71,0.54,1.8,0.09,3.51c-0.36,0.99,0,2.07,0.36,3.51c0.63,1.8-0.18,2.61,0.72,3.33
		c0.45,0.45,0.27,2.07,1.08,2.97c1.08,1.17,0.81,1.62,1.71,2.61c0.63,1.17,1.62,1.529,2.34,1.979c0.9,0.45,1.53,1.17,2.97,1.26
		c1.35,0.54,2.25,0.45,3.87,0.45c2.16,0.09,3.33-0.18,4.5-0.63c1.08-0.99,1.89-0.45,3.51-1.89c0.63-1.261,2.43-1.351,2.79-2.88
		c0.54-0.54,0.81-1.44,2.07-2.97c0.54-1.351,2.61,0,2.16,0.989c-0.27,1.08-1.08,1.351-1.44,2.16c-0.54,0.81-1.26,1.62-1.8,2.34
		c-0.9,0.99-1.98,1.53-2.25,2.34l-1.8,1.17c-1.44,1.26-2.88,1.53-4.95,2.07c-2.52,0.989-4.5,0.54-6.3,0.72
		c-1.89-0.27-3.33,0.18-4.59-0.45c-1.17-0.09-3.15-0.63-4.14-1.17c-1.62-0.72-3.24-1.35-4.68-2.43c-0.27-1.8-1.17-0.99-2.34-2.07
		c-1.44-0.989-2.16-1.979-2.7-3.149c-0.45-1.62-1.44-1.71-1.98-3.6c-1.08-0.99-1.17-2.7-1.26-4.23c-0.09-1.89-0.81-2.52-0.45-4.59
		c-0.45-0.989,0.63-4.77,0.72-5.76c0.27-1.35,1.44-1.08,0.99-2.88c0.36-1.89,1.44-2.25,2.07-3.779c0.63-1.62,1.98-1.891,2.61-3.24
		c0.63-1.439,2.52-1.71,3.33-2.609c0.72-0.99,2.79-1.351,3.78-2.07c1.35-0.99,2.97-0.99,4.14-1.26c1.98-0.63,2.88,0.09,4.5-0.45
		c0.81-0.27,2.88,0.72,4.23,0.45c1.89-0.09,3.15,0.81,3.959,1.26c1.08,0.27,2.61,1.53,3.6,2.07c1.08,0.63,2.25,1.529,3.15,2.88
		c1.08,0.989,0.99,1.979,1.71,2.25c1.08,1.17,0.54,1.439,1.44,2.43c1.35,1.529,1.44,3.33,1.44,4.949
		c0.45,1.351-0.63,2.61-1.44,2.431c-1.08,0.359-2.97,0.27-5.22,0.27c-2.43-0.27-4.05,0.18-5.58-0.09c-1.62-0.45-3.06,0-4.229,0
		c-2.07,0.27-2.52-0.45-4.23,0c-1.35,0-3.78,0-6.39,0c-0.9,0-1.35,0.63-1.98,1.439L250.677,53.397z M251.127,46.647
		c-0.27,2.07,0.45,2.79,2.34,2.79c1.71,0,4.77,0.09,6.21,0c1.98,0.09,4.05-0.09,6.57,0c1.89,0.09,2.25-0.359,2.16-1.71
		c-0.09-0.81,0.18-2.97-0.18-3.96c-0.72-0.989,0-2.43-0.99-3.689c-0.9-1.35-1.17-2.88-2.34-3.6c-0.54-0.54-2.79-1.71-4.41-1.44
		c-1.62-0.18-3.15,0.45-4.59,1.35c-1.53,1.261-1.89,2.431-2.88,3.601c-0.9,0.899-0.81,2.43-1.08,3.51
		C250.767,44.847,251.937,45.387,251.127,46.647z"/>
	<path fill="#FFFFFF" d="M377.304,18.028c0,1.26,0.18,3.6,0.09,5.129c-0.27,1.08,0.27,2.431,0.09,3.24c-0.54,1.44-0.09,1.62,0,2.7
		c-0.09,0.899,0.18,1.8-0.18,2.43c-0.36,0.63-2.34,0.99-2.43-0.63c-0.09-1.53-0.27-2.7-0.27-3.87c0.27-1.17-0.54-2.88-0.36-3.87
		c0.09-0.989-0.81-2.249-1.08-2.879c-0.36-0.9-0.45-2.16-1.26-2.971c-0.54-0.54-1.62-1.71-1.979-2.069
		c-1.08-0.72-1.89-1.17-3.24-1.351c-1.8-0.27-1.89-1.17-3.33-0.899c-1.53,0.45-2.07-0.18-3.6-0.09c-1.08,0.449-2.88-0.271-3.24,0.27
		c-0.72,0.63-0.99,1.44-0.63,2.61c0.09,1.89-0.09,2.43,0,4.409c-0.09,1.08,0,2.88,0,3.69c0.09,1.17-0.09,3.96-0.18,4.77
		c-1.08,1.17,0.18,2.07,0.18,2.7c0,1.529-0.18,2.609,0,3.779c0.54,1.26-0.63,2.25,0,3.69c0.27,1.26-0.27,2.97,0,3.779
		c0.27,1.53-0.36,3.061,0,3.78c0.54,1.439-0.72,1.529,0,3.689c0.54,1.8-0.9,1.89,0,3.78c-0.27,1.89,0,2.34,0,3.689
		c-0.36,1.17-0.18,3.061,0,3.78c0.27,0.899-0.63,2.609,0,3.689c0.09,1.26,0,4.14,0,5.04c0.27,1.35,0.99,2.52,2.25,2.25
		c0.81-0.18,1.62,0.09,3.24,0c1.35-0.09,1.35,0.09,2.88-0.09c2.07-0.271,1.8,3.06,0.45,3.06c-1.53,0.09-2.79-0.18-4.229-0.271
		c-1.98-0.09-3.06,0-3.78,0c-1.8-0.18-2.43,0.091-4.14,0c-1.62,0.54-1.98-0.539-3.51-0.09c-1.44,0.54-3.24,0.09-4.41,0.181
		c-0.99,0.09-1.44-0.63-2.52,0.09c-1.44,0-2.52-0.09-4.5-0.09s-2.79,0-4.32,0.09c-1.26,0.09-2.34-2.521,0.18-2.88
		c1.35-0.18,1.8,0.63,2.97,0c1.44,0.09,2.25,0,3.24,0c1.89,0.09,2.7-0.811,2.61-2.25c0-0.9,0.36-2.52,0.09-3.87
		c-0.27-1.439,0.09-3.689,0-4.859c0.81-1.351-0.45-2.43-0.18-3.24c0.45-1.439,0.18-2.609,0.18-4.229c-0.09-1.44,0.45-2.61,0-3.78
		c-0.45-1.26,0.81-1.71,0.18-2.88c-0.72-1.35-0.18-2.88-0.18-4.59c0-2.34,0.09-3.51,0-4.77c-0.09-1.44,1.26-1.89,0-2.7
		c-0.27-0.81,0-1.979,0-3.779c0.45-1.53-0.45-3.061,0-3.69c0.72-0.989-0.09-2.34,0-3.779c0.54-1.26-0.63-2.521,0-3.69
		c0.45-1.619-0.18-2.79,0-4.14c0-0.81,0.36-1.71-0.54-2.34c-0.54-0.63-1.62-1.08-2.25-0.72c-2.16,0-2.43-0.09-4.05,0.18
		c-1.71-0.359-2.61,0.811-3.42,0.63c-1.26,0.271-2.16,0.811-3.15,1.44c-1.26,0.72-1.53,1.8-2.34,1.979
		c-0.81,0.811-1.62,1.17-1.71,2.61c-0.63,1.17-0.45,1.8-1.26,3.329c-0.72,1.44-0.09,2.25-0.72,3.87c-0.45,1.17-0.36,1.89-0.36,3.87
		c0,1.35-1.8,1.71-2.43,0.54c-0.36-0.9,0.36-1.44,0-1.98c-0.54-1.35,0.27-1.979,0-3.06c-0.18-1.8,0-2.79,0.18-3.779
		c0.09-1.801-0.54-2.79,0.09-4.5c0-1.98,0.09-2.79-0.18-3.96c0.18-1.44-0.27-2.43,0-4.05c0.18-1.17,0.9-0.72,2.34-0.9
		c1.17-0.18,1.89,0.54,3.42,0.181c1.44,0.27,2.16,0.27,3.42,0.18c2.43,0.27,4.23,0.27,6.84,0.18c2.25,0.09,3.69-0.09,6.12,0
		c1.8,0,4.59,0.181,6.21,0c2.07,0.63,2.52,0.09,4.77,0.181c1.89,0,5.58,0.09,7.47-0.181c1.8,0,2.7,0.63,3.6,0
		c0.9-0.09,2.43-0.18,3.6-0.09c1.08-0.09,2.16,0.09,3.6-0.18c0.63-0.36,2.61,0,3.6-0.271c0.9-0.18,2.43-0.359,2.16,1.62
		c-0.36,1.98,0.18,1.89-0.09,3.42V18.028z"/>
	<path fill="#FFFFFF" d="M392.336,18.478c-0.9,0.721-0.45,1.891-0.54,2.521c-0.18,1.35-0.81,3.42-1.08,5.04
		c-0.18,1.439,0,3.239-0.63,5.22c-0.09,1.619-1.8,2.159-3.24,0.81c-0.9-0.63-0.18-2.25-0.36-3.24c-0.54-1.08-0.72-2.34-0.63-4.14
		c0.36-0.63-0.63-1.439-0.81-3.239c0.27-1.351-0.45-2.07-0.72-3.511c-1.17-1.529-0.81-2.97-0.72-4.499
		c0.09-1.351,0.36-3.061,1.53-3.42c0.72-0.721,2.61-1.17,3.51-1.08c1.71,0.27,2.43,0.359,3.15,1.35c1.35,1.53,1.17,2.34,1.35,3.69
		C393.146,16.319,392.785,16.588,392.336,18.478z"/>
	<path fill="#FFFFFF" d="M433.284,63.476c0.09,1.98-0.9,1.801-0.63,3.33c-0.09,1.17-1.53,2.43-1.89,3.78
		c-0.63,1.35-1.17,0.899-1.8,1.979c-0.45,0.9-1.44,0.54-2.07,1.351c-0.81,0.989-1.89,1.079-3.06,1.529
		c-2.16,0.63-3.33,0.63-5.31,0.9c-1.53-0.09-2.52,0.09-4.05-0.36c-0.63-0.18-1.53,0-2.88-0.54c-1.26-0.72-3.24-0.899-4.23-1.89
		c-0.99-0.81-1.89-0.9-2.16-0.63c-0.9,0.72-0.72,1.08-1.26,1.71c-0.36,0.72-2.61,0.09-1.98-1.08c0.27-1.08,0.27-2.34,0.63-3.689
		c0.09-0.9,0.36-2.34,0.18-3.51c0.45-0.9,0.09-1.44-0.18-2.25c0.09-0.721-0.27-1.351-0.09-2.7c0.18-1.17,2.61-0.9,2.43,0.27
		c0.36,1.98,0.27,1.8,0.9,3.51c0.72,1.62,0.45,2.25,1.44,2.79c0.36,0.54,0.9,1.44,1.89,2.34c0.99,0.9,1.53,1.351,2.7,1.98
		c1.17,0.54,1.17,1.17,2.34,1.08c1.26,0.27,2.16,0.359,3.33,0.27c1.8,0,2.79-0.09,3.78-0.359c0.72-0.631,1.17,0.27,1.8-0.9
		c0.72-0.54,1.62-1.26,2.43-2.43c0.36-1.26,0.9-1.891,0.63-3.24c0.18-0.99-0.27-1.89-0.9-2.609c-0.54-1.351-1.26-0.9-1.89-1.53
		c-0.99-0.9-1.62-0.72-2.25-0.99c-1.08-0.27-1.53-0.63-2.7-0.72c-1.17-0.36-1.71-1.17-2.7-0.99c-1.89,0.09-3.33-1.26-4.59-1.71
		c-1.8-0.359-2.43-1.17-3.87-2.34c-1.62-1.08-2.61-2.34-3.06-3.779c-0.36-1.17-1.53-3.15-0.99-5.58c0.36-1.8,0.18-3.96,1.17-5.49
		c0.9-1.439,1.89-3.6,3.06-4.409c0.36-0.72,1.17-1.17,2.07-1.62c1.35,0.18,1.26-0.81,2.43-1.26c1.98-0.72,4.32-1.17,5.49-1.08
		c1.08,0.09,3.06,0.27,4.5,0.72c2.16,0.811,2.88,0.9,4.5,1.8c0.63,0.271,0.99,0.45,1.44,0.271c0.54-0.36,0.54-0.99,1.17-1.53
		c0.27-0.72,1.71,0,1.8,0.54c0.09,0.63-0.45,1.17-0.36,1.89c-0.09,2.521-0.36,3.15-0.27,4.5c-0.54,0.99,0,0.811,0.09,1.62
		c0.09,1.26,0.18,1.979,0.18,3.06c0.36,1.17-2.34,1.62-2.52,0.271c-0.09-1.08-0.45-1.71-0.36-2.88c-0.18-1.351-0.63-1.98-1.44-3.24
		c-0.99-1.53-2.88-2.34-3.959-3.24c-1.35-0.989-3.6-1.079-4.86-1.079c-1.53,0.09-3.24,0.359-5.04,1.26
		c-1.35,1.17-2.61,2.43-2.61,4.59c-0.18,1.08-0.09,1.89,0.99,3.239c0.36,0.721,1.71,1.62,2.7,2.16c0.81,0.54,2.97,1.35,3.78,1.53
		c1.17-0.09,1.98,1.35,3.78,1.26c1.71,0.54,1.62,1.439,3.15,1.08c1.53,0.63,4.5,1.979,5.58,3.06c1.26,1.62,2.52,2.97,3.06,5.13
		C433.014,59.517,433.284,61.406,433.284,63.476z"/>
	<path fill="#FFFFFF" d="M70.454,164.456c-1.8,0.63-2.97,1.079-4.05,1.079c-1.26,0-2.52,0.36-4.23,0.271
		c-1.71-0.18-3.06-0.18-5.31-0.811c-1.53-0.539-1.35-1.439-2.61-1.35c-1.26-0.72-0.9-1.08-2.07-1.979
		c-0.9-1.17-1.71-3.061-2.07-4.68c-0.63-2.07-0.54-3.15-0.63-5.13c0.81-0.99-0.27-1.71-0.18-2.431c-0.45-1.89,0-4.409-0.72-5.669
		c-0.36-1.261-0.72-3.601-1.8-5.311c-0.99-1.619-1.71-3.42-3.42-3.959c-1.8-0.45-3.15-1.53-5.67-1.44c-1.26-0.09-2.7-0.18-4.77,0
		c-0.9,0.09-1.17,0.72-1.53,1.8c-0.09,1.35,0.09,3.6,0,5.58c0.09,1.17-0.81,2.43,0,3.689c0.27,1.71-0.63,2.521-0.27,3.24
		c0.54,1.53-0.63,2.34,0.27,4.14c0.54,1.8-0.54,2.52,0,3.78c0,2.069,0.18,3.42,0,4.949c-0.18,0.72,0.99,2.07,2.88,1.891
		c0.99,0.359,1.89,0.09,3.06,0.18c0.81,0.09,1.53-0.271,2.34,0.09c1.26,0.54,1.08,2.609-0.09,2.7c-0.99,0.27-2.07-0.091-2.7,0
		c-0.63,0.18-1.71-0.091-2.7,0c-0.81,0.18-1.26-0.9-2.16,0c-1.89,0.359-2.7-0.45-3.51-0.091c-1.26,0.54-2.52-0.449-3.78,0.181
		c-1.26-0.09-2.61,0.45-3.959,0c-1.62-0.54-2.25,0-3.96,0c-1.17,0-2.7-0.09-3.78,0c-0.81,0.09-1.89,0-2.88,0
		c-1.35,0.45-2.61-3.15,0.36-2.88c2.07,0.18,3.15,0.09,4.86,0.09c1.08,0.18,2.34-0.18,2.43-1.62c0.36-2.069,0.63-2.34,0.36-4.319
		c0.27-1.62,0.27-2.7,0.27-4.86c0.99-2.52-0.36-3.239,0-4.949c0.45-2.25-0.27-5.76,0.18-8.37c0.27-1.53-0.18-3.51-0.27-6.029
		c-0.27-1.53,1.08-3.42,0.09-5.22c0.09-2.16-0.36-4.141,0-6.21c0.45-2.43-0.27-3.33,0.18-5.31c1.08-1.44-0.36-2.25-0.36-3.87
		c0.27-1.26,0.09-5.22,0.09-6.93c-0.09-1.17-1.17-2.16-1.98-2.16c-1.35-0.36-4.32-0.18-5.31-0.27c-1.26,0.27-2.16-1.261-1.17-2.521
		c0.72-0.54,1.53-0.18,1.89-0.18c1.08,0,1.62,0.36,3.6,0.18c1.44-0.27,2.7,0.271,3.78,0.181c1.98-0.091,4.05,0.18,5.67-0.091
		c1.53,0,3.87-0.54,5.669-0.18c1.98,0.09,3.51-0.18,5.94-0.45c2.16,0,3.15,0.09,5.49,0.181c1.8,0.18,2.43-0.181,4.41,0.18
		c1.8,0.27,3.06-0.09,4.32,0.72c1.71,0.45,3.33,0.54,4.14,1.62c1.17,1.17,2.16,1.26,3.6,2.52c0.81,0.45,0.36,1.53,1.89,2.34
		c1.17,1.08,0.63,2.07,1.35,2.61c1.08,1.89,0.99,3.33,1.17,5.76c0.18,1.35,0.09,3.149-0.9,5.13c-1.17,1.08-0.9,2.7-2.43,4.229
		c-0.9,1.17-2.07,1.98-3.6,3.24c-1.709,0.899-3.06,1.35-4.68,2.25c-0.54,0.359-1.98,0.54-2.43,0.63c-2.34,0.27-2.88,1.35-0.9,2.069
		c1.35,0.271,3.24,1.261,4.32,1.261c1.53,0.18,1.35,1.26,2.97,1.619c1.17,0.36,2.16,0.9,3.51,2.79c0.81,1.08,2.07,2.97,1.98,4.05
		c0.18,0.811,0.54,2.521,0.99,4.32c0.36,1.62,0.36,3.06,0.36,4.68c-0.27,0.99-0.54,1.439,0,2.52c0.27,1.17,0.36,3.33,0.63,5.22
		c0.72,0.9,0.36,1.62,1.26,2.16c1.08,0.811,1.53,1.26,2.7,1.08c1.53-0.18,1.98-0.27,3.42-0.81
		C70.814,161.216,72.164,163.825,70.454,164.456z M47.325,126.117c1.62-1.8,1.53-3.06,2.52-4.59c0.36-2.07,0.72-3.24,0.9-5.85
		c0.27-1.35-0.45-2.07-0.27-3.33c0.18-1.17-0.72-1.439-0.81-2.88c-0.09-1.62-0.9-0.99-1.26-2.43c-0.36-1.44-1.08-1.35-1.71-1.98
		c-1.26-1.619-3.42-2.34-4.68-2.52c-2.25-0.81-3.959-0.81-6.209-0.9c-2.34-0.09-2.88,0.271-3.69,0.721
		c-0.72,0.54-0.99,1.8-0.72,3.239c-0.09,1.351,0.27,2.79-0.18,3.69c-0.81,1.529,0.27,1.8-0.09,2.88c-0.45,1.62,0.36,1.89,0.18,2.609
		c-0.27,1.261,0,2.07,0.09,3.15c0.27,1.08-0.63,3.239,0,4.68c0.45,1.53-0.27,3.779,0,4.59c0.09,2.069,0.72,2.609,1.709,2.88
		c1.98,0.359,3.24-0.09,5.13,0.09c2.43-0.09,3.87-0.63,4.95-0.99C44.355,128.367,45.885,128.007,47.325,126.117z"/>
	<path fill="#FFFFFF" d="M88.185,143.397c-0.27,1.71,0.54,1.8,0.09,3.51c-0.36,0.99,0,2.07,0.36,3.51c0.63,1.8-0.18,2.61,0.72,3.33
		c0.45,0.45,0.27,2.07,1.08,2.97c1.08,1.17,0.81,1.62,1.71,2.61c0.63,1.17,1.62,1.529,2.34,1.979c0.9,0.45,1.53,1.17,2.97,1.26
		c1.35,0.54,2.25,0.45,3.87,0.45c2.16,0.09,3.33-0.18,4.5-0.63c1.08-0.99,1.89-0.45,3.51-1.89c0.63-1.261,2.43-1.351,2.79-2.88
		c0.54-0.54,0.81-1.44,2.07-2.97c0.54-1.351,2.61,0,2.16,0.989c-0.27,1.08-1.08,1.351-1.44,2.16c-0.54,0.81-1.26,1.62-1.8,2.34
		c-0.9,0.99-1.98,1.53-2.25,2.34l-1.8,1.17c-1.44,1.26-2.88,1.53-4.95,2.07c-2.52,0.989-4.5,0.54-6.3,0.72
		c-1.89-0.27-3.33,0.18-4.59-0.45c-1.17-0.09-3.15-0.63-4.14-1.17c-1.62-0.72-3.24-1.35-4.68-2.43c-0.27-1.8-1.17-0.99-2.34-2.07
		c-1.44-0.989-2.16-1.979-2.7-3.149c-0.45-1.62-1.44-1.71-1.98-3.6c-1.08-0.99-1.17-2.7-1.26-4.23c-0.09-1.89-0.81-2.52-0.45-4.59
		c-0.45-0.989,0.63-4.77,0.72-5.76c0.27-1.35,1.44-1.08,0.99-2.88c0.36-1.89,1.44-2.25,2.07-3.779c0.63-1.62,1.98-1.891,2.61-3.24
		c0.63-1.439,2.52-1.71,3.33-2.609c0.72-0.99,2.79-1.351,3.78-2.07c1.35-0.99,2.97-0.99,4.14-1.26c1.98-0.63,2.88,0.09,4.5-0.45
		c0.81-0.27,2.88,0.72,4.23,0.45c1.89-0.09,3.15,0.81,3.96,1.26c1.08,0.27,2.61,1.53,3.6,2.07c1.08,0.63,2.25,1.529,3.15,2.88
		c1.08,0.989,0.99,1.979,1.71,2.25c1.08,1.17,0.54,1.439,1.44,2.43c1.35,1.529,1.44,3.33,1.44,4.949
		c0.45,1.351-0.63,2.61-1.44,2.431c-1.08,0.359-2.97,0.27-5.22,0.27c-2.43-0.27-4.05,0.18-5.58-0.09c-1.62-0.45-3.06,0-4.229,0
		c-2.07,0.27-2.52-0.45-4.23,0c-1.35,0-3.78,0-6.39,0c-0.9,0-1.35,0.63-1.98,1.439L88.185,143.397z M88.635,136.647
		c-0.27,2.07,0.45,2.79,2.34,2.79c1.71,0,4.77,0.09,6.21,0c1.98,0.09,4.05-0.09,6.57,0c1.89,0.09,2.25-0.359,2.16-1.71
		c-0.09-0.81,0.18-2.97-0.18-3.96c-0.72-0.989,0-2.43-0.99-3.689c-0.9-1.35-1.17-2.88-2.34-3.6c-0.54-0.54-2.79-1.71-4.41-1.44
		c-1.62-0.18-3.15,0.45-4.59,1.35c-1.53,1.261-1.89,2.431-2.88,3.601c-0.9,0.899-0.81,2.43-1.08,3.51
		C88.275,134.847,89.445,135.387,88.635,136.647z"/>
	<path fill="#FFFFFF" d="M155.234,153.476c0.09,1.98-0.9,1.801-0.63,3.33c-0.09,1.17-1.53,2.43-1.89,3.78
		c-0.63,1.35-1.17,0.899-1.8,1.979c-0.45,0.9-1.44,0.54-2.07,1.351c-0.81,0.989-1.89,1.079-3.06,1.529
		c-2.16,0.63-3.33,0.63-5.31,0.9c-1.53-0.09-2.52,0.09-4.05-0.36c-0.63-0.18-1.53,0-2.88-0.54c-1.26-0.72-3.24-0.899-4.23-1.89
		c-0.99-0.81-1.89-0.9-2.16-0.63c-0.9,0.72-0.72,1.08-1.26,1.71c-0.36,0.72-2.61,0.09-1.98-1.08c0.27-1.08,0.27-2.34,0.63-3.689
		c0.09-0.9,0.36-2.34,0.18-3.51c0.45-0.9,0.09-1.44-0.18-2.25c0.09-0.721-0.27-1.351-0.09-2.7c0.18-1.17,2.61-0.9,2.43,0.27
		c0.36,1.98,0.27,1.8,0.9,3.51c0.72,1.62,0.45,2.25,1.44,2.79c0.36,0.54,0.9,1.44,1.89,2.34c0.99,0.9,1.53,1.351,2.7,1.98
		c1.17,0.54,1.17,1.17,2.34,1.08c1.26,0.27,2.16,0.359,3.33,0.27c1.8,0,2.79-0.09,3.78-0.359c0.72-0.631,1.17,0.27,1.8-0.9
		c0.72-0.54,1.62-1.26,2.43-2.43c0.36-1.26,0.9-1.891,0.63-3.24c0.18-0.99-0.27-1.89-0.9-2.609c-0.54-1.351-1.26-0.9-1.89-1.53
		c-0.99-0.9-1.62-0.72-2.25-0.99c-1.08-0.27-1.53-0.63-2.7-0.72c-1.17-0.36-1.71-1.17-2.7-0.99c-1.89,0.09-3.33-1.26-4.59-1.71
		c-1.8-0.359-2.43-1.17-3.87-2.34c-1.62-1.08-2.61-2.34-3.06-3.779c-0.36-1.17-1.53-3.15-0.99-5.58c0.36-1.8,0.18-3.96,1.17-5.49
		c0.9-1.439,1.89-3.6,3.06-4.409c0.36-0.72,1.17-1.17,2.07-1.62c1.35,0.18,1.26-0.81,2.43-1.26c1.98-0.72,4.32-1.17,5.49-1.08
		c1.08,0.09,3.06,0.27,4.5,0.72c2.16,0.811,2.88,0.9,4.5,1.8c0.63,0.271,0.99,0.45,1.44,0.271c0.54-0.36,0.54-0.99,1.17-1.53
		c0.27-0.72,1.709,0,1.8,0.54c0.09,0.63-0.45,1.17-0.36,1.89c-0.09,2.521-0.36,3.15-0.27,4.5c-0.54,0.99,0,0.811,0.09,1.62
		c0.09,1.26,0.18,1.979,0.18,3.06c0.36,1.17-2.34,1.62-2.52,0.271c-0.09-1.08-0.45-1.71-0.36-2.88c-0.18-1.351-0.63-1.98-1.439-3.24
		c-0.99-1.53-2.88-2.34-3.96-3.24c-1.35-0.989-3.6-1.079-4.86-1.079c-1.53,0.09-3.24,0.359-5.04,1.26
		c-1.35,1.17-2.61,2.43-2.61,4.59c-0.18,1.08-0.09,1.89,0.99,3.239c0.36,0.721,1.71,1.62,2.7,2.16c0.81,0.54,2.97,1.35,3.78,1.53
		c1.17-0.09,1.98,1.35,3.78,1.26c1.71,0.54,1.62,1.439,3.15,1.08c1.53,0.63,4.5,1.979,5.58,3.06c1.26,1.62,2.52,2.97,3.06,5.13
		C154.964,149.517,155.234,151.406,155.234,153.476z"/>
	<path fill="#FFFFFF" d="M189.794,159.686c0.27,0.36,0.54,0.99,0.54,1.351c-0.09,0.81-0.9,0.989-1.53,1.439
		c-0.36,0.271-0.72,0.54-1.17,0.811c-0.9,0.63-1.71,1.35-2.97,1.709c-1.17,0.54-1.979,0.811-3.24,1.08
		c-1.08,0.181-1.8,0.091-3.51,0.36c-1.53,0.27-3.51-0.54-4.14-0.54c-0.99-0.09-2.52-0.81-3.6-1.439c-0.54-1.44-0.99-0.9-2.25-1.801
		c-1.26-0.63-1.17-2.069-2.07-3.149s-0.54-2.16-0.81-3.24c0.36-0.81-0.27-1.08,0-1.89c-0.09-0.54-0.36-0.99-0.09-2.07
		c0.36-1.439-0.36-1.439-0.09-2.159c0.45-1.26,0-1.8,0.27-3.15c0.36-0.989-0.36-1.8,0.09-2.609c0.63-1.53-0.45-1.62-0.18-3.24
		c0.36-2.069,0.09-2.52,0.09-4.68c-0.09-2.43,0.09-5.67,0.09-7.56c0.27-1.44-0.18-1.89-1.17-1.98c-0.72-0.09-1.62-0.09-2.25,0
		c-0.72,0.091-1.62,0.091-1.62-1.17c0-0.72-0.18-1.26,1.53-1.529c1.26-0.45,1.53,0,2.25-0.63c0.54-0.54,1.979-0.36,2.52-0.99
		c0.9-0.9,1.89-1.08,2.34-1.53c0.72-0.899,1.35-0.989,2.07-2.16c0.45-0.449,0.9-0.81,1.62-1.89c0.81-0.63,0.54-1.26,1.26-2.069
		c0.54-1.351,0.81-1.17,1.08-2.79c0.36-0.9,0.36-1.53,0.72-3.061c0.09-1.079,2.16-0.989,2.07,0.181c-0.09,0.81,0.18,1.8,0,2.79
		c-0.09,1.35-0.45,1.8-0.27,3.51c0.09,0.81-0.54,1.62-0.18,2.43c0.54,0.81-0.18,1.08,0.09,1.8c0.36,0.9,0,1.44,0.18,2.79
		c0.09,1.439,0.9,1.35,2.07,1.439c0.99,0.091,1.17-0.27,2.34,0.091c0.54,0.18,0.63-0.36,1.89-0.181c0.81,0.09,0.99,0.271,2.16,0.181
		c1.26-0.54,1.53,2.789-0.09,2.699c-0.81,0.09-1.26-0.359-1.62-0.18c-1.08,0.54-1.26,0.18-1.98,0.18c-1.71,0-2.07,0.09-2.97,0
		c-1.71,0.09-1.98,0.9-1.98,1.44c-0.18,1.529-0.27,4.229-0.09,5.67c0.18,1.079-0.54,4.409-0.18,5.31c0.36,1.62-0.54,2.43,0.09,4.68
		c0,1.71-0.09,3.689,0,5.58c-0.36,0.899,0.27,3.329-0.09,5.22c-0.18,1.439,0.09,2.069,0.27,2.97c0.18,0.63,0.54,1.08,0.54,1.979
		c0,0.721,0.9,1.351,1.26,1.71c0.81,0.9,1.71,1.08,3.06,0.99c1.35-0.09,1.8,0.09,2.61-0.54c0.18-0.18,0.9-0.36,1.08-0.63
		c0.54-0.72,0.81-0.45,1.53-0.9c0.36-0.18,0.63-0.81,1.35-0.989C189.164,159.236,189.524,159.326,189.794,159.686z"/>
	<path fill="#FFFFFF" d="M236.052,159.506c-0.54,0.99-0.9,1.35-1.71,2.25c-0.63,1.35-1.44,1.35-2.34,2.25
		c-0.81,0.81-1.44,1.08-2.79,1.439c-0.63-0.18-2.16,1.17-3.51,0.54c-1.08,0-3.6-0.359-5.31-1.35c-0.81-0.45-1.35-1.08-2.25-2.07
		c-0.36-1.35-2.07-1.35-2.88-0.63c-0.45,1.26-2.16,1.53-2.88,2.16c-0.9,0.81-1.8,0.18-2.16,1.17c-0.81,0.45-3.6,0.81-5.13,0.9
		c-1.53-0.271-2.52,0-4.14-0.631c-1.8-0.63-2.16-0.989-3.6-1.979c-1.35-0.45-1.8-1.71-2.52-3.06c0.45-1.71-0.81-1.44-0.81-2.97
		c-0.36-2.521,0.54-5.04,1.08-5.851c1.17-1.8,1.62-3.329,3.42-3.96c1.8-0.81,1.89-1.979,3.69-2.34c1.71-1.079,2.79-1.26,4.59-1.619
		c1.8-0.271,2.52-0.9,4.23-0.811c1.62,0.271,1.979-0.45,3.689-0.63c0.81,0,1.71-0.27,1.98-0.99c0.36-0.63,0.54-0.899,0.36-1.529
		c0.27-0.99,0.27-2.16,0-3.601c0-0.899,0.18-2.699,0-4.14c-0.27-1.62,0-3.42-1.62-4.859c-0.54-1.35-2.7-1.62-4.77-1.89
		c-1.26,0.09-2.88,0.449-3.78,0.63c-1.08,0.18-2.61,1.62-2.34,2.159c-0.54,1.17,0.36,1.891,0.72,2.25c1.08,1.08,1.26,1.71,1.26,2.88
		c-0.09,0.99-0.36,2.07-1.26,3.15c-0.72,1.439-1.62,1.26-3.06,1.35c-1.26,0.09-2.16-0.54-3.51-1.53c-0.99-1.17-1.26-1.979-1.35-3.6
		c-0.27-1.62,0.54-3.51,1.8-4.77c1.17-0.99,1.53-1.71,1.98-1.71c1.62,0,0.72-0.99,2.07-1.17c1.98-0.63,3.69-1.62,5.85-1.71
		c1.62-0.72,3.6-0.54,5.22-0.63c0.81,0.18,1.89,0.27,3.24,0.45c1.26-0.271,1.71,0.81,3.15,0.72c1.08-0.09,1.44,1.08,3.06,1.62
		c0.99,0.359,1.62,1.529,2.34,2.52c1.26,1.53,0,2.25,1.26,2.88c0.36,1.44,0.54,5.04,0.54,5.939c-0.18,1.351,0.18,2.7-0.09,3.601
		c-0.45,1.35,0.27,2.25,0,3.149c-0.36,1.26,0.36,1.98,0,2.61c-0.72,1.439,0.09,1.89,0.18,3.149c0,2.34-0.63,2.25-0.09,3.69
		c0.18,1.26-0.36,3.6,0,5.399c0.09,1.35,0.72,2.88,2.52,2.97c1.08,0.09,1.26,0.271,2.43-1.08c0.36-0.899,0.81-0.99,1.08-1.8
		C234.343,157.166,236.593,158.066,236.052,159.506z M217.063,154.916c0.36-1.08-0.18-1.35-0.09-2.34c0.54-1.35-0.63-1.71,0.09-2.79
		c0.63-0.899-0.45-1.53-0.09-2.88c0.27-2.069-1.35-2.43-2.97-1.979c-0.63,0.27-1.89-0.181-2.7,0.72
		c-1.35,0.899-2.16,0.36-3.24,1.439c-1.17,0.63-2.34,1.44-2.79,2.521c-0.54,1.17-1.53,1.71-1.26,2.79
		c-0.27,0.72,0.09,0.989-0.36,2.159c-0.27,0.9,0.45,1.53,0.45,2.34c0,1.17,0.27,1.71,1.17,2.521c1.08,0.899,2.07,1.89,4.5,2.069
		c1.71-0.09,3.51-0.72,4.23-1.26c0.72-0.72,1.98-1.8,2.61-2.97C217.154,156.536,216.794,155.817,217.063,154.916z"/>
	<path fill="#FFFFFF" d="M282.222,132.867c-0.63,1.26,0.99,2.699,0,4.949c-0.09,1.891-0.18,3.87,0,4.95c0.54,2.16-0.45,3.24,0,4.949
		c-0.27,2.25,0.54,2.79,0,4.95c-0.09,1.53,0.09,3.96,0,6.03c-0.63,1.26,1.26,3.779,2.34,3.42c1.53-0.181,1.71-0.271,2.88-0.091
		c1.53,0.54,1.8,2.79-0.09,3.24c-0.81,0.45-2.25-0.09-3.6,0.09c-1.71-0.27-2.79,0.09-4.23,0c-0.99,0.271-2.7,0.45-3.6,0.63
		c-1.26-0.27-2.43,1.08-3.69,0.72c-0.99-0.27-1.62-0.81-1.62-1.529c0-1.17,0.18-1.8,0.18-2.79c-0.27-1.08-1.17-1.53-2.34-0.45
		c-0.18,0.72-3.51,2.43-3.96,2.25c-1.62,0.45-1.98,1.26-3.6,1.44c-1.17-0.091-2.34,0.54-4.14,0.54c-0.81-0.36-3.24-0.631-3.78-0.54
		c-0.72,0-2.07-0.36-3.6-1.44c-0.9-0.99-2.34-1.35-2.97-2.34c-0.99-1.17-1.26-1.8-2.16-3.149c-0.9-1.98-1.53-2.431-1.17-4.681
		c-0.45-2.069,0.36-2.88-0.09-4.859c0.09-1.35-0.09-3.78,0.09-5.67c-0.45-1.35,0.27-4.409,0.09-5.76c-0.54-1.35,0.36-5.13,0.09-6.93
		c0.18-2.52-0.45-3.689-1.53-3.6c-1.44,0.18-1.8,0-2.88-0.36c-1.17-0.359-1.08-2.52-0.09-2.97c1.35-0.72,2.97-0.45,3.689-0.36
		c0.9,0.091,2.7-0.18,3.87,0.181c0.72,0.09,2.34-0.63,3.87-0.54c0.9-0.18,2.7-0.72,3.87-0.99c0.99-0.359,1.89,0.54,1.71,1.62
		c-0.27,1.8-0.18,2.88-0.45,4.859c0.18,1.261-0.18,1.98-0.45,3.51c0.27,1.71,0.18,3.061-0.09,4.5c0,1.98,0.18,3.15,0,4.5
		c0.54,2.16-0.27,3.33,0,5.49c0.18,2.43,0.54,4.05,0,5.579c0,1.08-0.09,2.34,0.18,3.51c-0.18,1.351-0.18,1.801,0.81,2.971
		c0.63,1.079,0.72,1.35,1.8,2.159c0.72,0,1.62,1.351,3.42,0.811c1.8,0.359,4.41-0.36,5.4-1.62c0.9-0.9,1.08-0.63,2.16-1.71
		c0.81-1.08,1.17-1.44,2.07-2.07c0.27-1.35-0.18-2.79,0-3.779c0.45-0.54-0.54-2.07,0-3.69c0.18-1.8-0.36-2.52,0-3.779
		c0.54-0.9-0.27-2.97,0-3.69c-0.36-0.72,0.18-2.43,0-3.779c0.09-1.351-0.36-2.34,0-3.78c0-0.63,0.18-3.149,0-4.319
		c0.54-1.62-0.36-2.34-1.89-2.34c-0.54,0.18-1.44,0-3.06-0.181c-2.34-0.54-1.44-2.699-0.45-3.06c0.81-0.27,2.43,0.09,3.6,0
		c0.99,0,2.34-0.36,4.05-0.18c1.71-0.72,2.7,0.27,4.05-0.63c1.08-0.54,1.98-0.36,3.51-0.811c0.54-0.63,3.42,0.811,2.07,3.42
		c-0.54,1.08,0.27,2.521-0.18,4.23L282.222,132.867z"/>
	<path fill="#FFFFFF" d="M330.642,130.167c0.09,1.17-0.09,2.79-1.26,3.78c-1.26,1.529-2.25,1.89-3.33,1.71
		c-1.35,0.539-2.79-0.091-4.05-1.44c-1.08-1.439-1.26-1.62-1.17-3.33c0.18-0.63,0.27-1.529-0.09-2.43c0.09-0.54-0.72-1.08-1.62-0.99
		c-1.44-0.09-1.8,0.271-2.34,0.811c-1.439,0.45-1.709,1.62-2.16,1.89c-1.17,1.17-0.63,1.62-1.53,2.52c-0.9,0.45-0.63,1.71-0.99,2.61
		c-0.9,1.8-0.63,3.33-0.72,5.399c0.45,2.16-0.27,3.42,0,5.4c0.09,0.899,0.09,3.149,0,4.859c-0.99,1.35-0.09,2.43,0,3.24
		c-0.27,1.979,0.36,4.77,0.18,6.21c0.18,1.619,1.26,1.979,2.43,1.89c1.62-0.36,1.53,0.18,2.88,0c1.71-0.45,1.89,3.149,0.27,2.88
		c-1.8,0.359-3.6,0.18-6.03,0.09c-1.62-0.09-2.88-0.99-3.51-0.09c-2.16,0.09-5.13,0.09-7.56,0c-2.79-0.09-3.42-0.09-5.76-0.09
		c-1.8,0.27-1.8-2.88-0.27-2.79c0.63-0.18,2.07,0,3.6-0.09c1.44-0.181,1.62-0.99,1.89-2.7c0.09-1.26,0.09-3.24,0.18-4.859
		c0.09-1.71-0.27-2.79,0-4.771c1.08-1.62,0.09-1.62-0.09-2.97c0.09-1.979,0-4.319,0.09-6.569c1.08-1.44-0.09-0.99,0-2.7
		c0.54-1.62,0-4.229-0.09-6.21c-0.27-1.26,0.36-1.62-0.18-3.42c-0.18-1.62-1.35-1.17-1.89-1.26c-0.72-0.09-1.89,0.18-2.97,0.09
		c-1.26,0.181-2.34-2.97,0.45-2.97c0.99,0,2.07,0.18,3.24,0c1.35,0,2.52,0.18,3.6-0.27c0.9,0.09,2.88-0.45,3.959-0.54
		c0.81,0,1.35,0.359,3.06-0.63c1.26-0.63,2.16,0.359,2.34,0.989c0.45,0.9-0.09,1.8,0.09,2.97c-0.09,2.25-0.27,2.88,0.54,3.061
		c0.72,0.18,0.81-0.45,1.89-1.89c0.09-0.721,1.8-2.25,2.43-2.521c1.08-0.899,2.07-1.26,2.88-1.71c1.53,0.271,0.99-0.359,2.07-0.45
		c1.08-0.09,2.88-0.27,4.5,0.45c0.99,0.271,1.71,0.9,2.52,1.53c0.99,0.45,0.99,0.99,1.71,2.43
		C330.462,128.367,330.372,128.818,330.642,130.167z"/>
	<path fill="#FFFFFF" d="M376.271,159.506c-0.54,0.99-0.9,1.35-1.71,2.25c-0.63,1.35-1.44,1.35-2.34,2.25
		c-0.81,0.81-1.44,1.08-2.79,1.439c-0.63-0.18-2.16,1.17-3.51,0.54c-1.08,0-3.6-0.359-5.31-1.35c-0.81-0.45-1.35-1.08-2.25-2.07
		c-0.36-1.35-2.07-1.35-2.88-0.63c-0.45,1.26-2.16,1.53-2.88,2.16c-0.9,0.81-1.8,0.18-2.16,1.17c-0.81,0.45-3.6,0.81-5.13,0.9
		c-1.53-0.271-2.52,0-4.14-0.631c-1.8-0.63-2.16-0.989-3.6-1.979c-1.35-0.45-1.8-1.71-2.52-3.06c0.45-1.71-0.81-1.44-0.81-2.97
		c-0.36-2.521,0.54-5.04,1.08-5.851c1.17-1.8,1.62-3.329,3.42-3.96c1.8-0.81,1.89-1.979,3.69-2.34c1.71-1.079,2.79-1.26,4.59-1.619
		c1.8-0.271,2.52-0.9,4.23-0.811c1.62,0.271,1.979-0.45,3.689-0.63c0.81,0,1.71-0.27,1.98-0.99c0.36-0.63,0.54-0.899,0.36-1.529
		c0.27-0.99,0.27-2.16,0-3.601c0-0.899,0.18-2.699,0-4.14c-0.27-1.62,0-3.42-1.62-4.859c-0.54-1.35-2.7-1.62-4.77-1.89
		c-1.26,0.09-2.88,0.449-3.78,0.63c-1.08,0.18-2.61,1.62-2.34,2.159c-0.54,1.17,0.36,1.891,0.72,2.25c1.08,1.08,1.26,1.71,1.26,2.88
		c-0.09,0.99-0.36,2.07-1.26,3.15c-0.72,1.439-1.62,1.26-3.06,1.35c-1.26,0.09-2.16-0.54-3.51-1.53c-0.99-1.17-1.26-1.979-1.35-3.6
		c-0.27-1.62,0.54-3.51,1.8-4.77c1.17-0.99,1.53-1.71,1.98-1.71c1.62,0,0.72-0.99,2.07-1.17c1.98-0.63,3.69-1.62,5.85-1.71
		c1.62-0.72,3.6-0.54,5.22-0.63c0.81,0.18,1.89,0.27,3.24,0.45c1.26-0.271,1.71,0.81,3.15,0.72c1.08-0.09,1.44,1.08,3.06,1.62
		c0.99,0.359,1.62,1.529,2.34,2.52c1.26,1.53,0,2.25,1.26,2.88c0.36,1.44,0.54,5.04,0.54,5.939c-0.18,1.351,0.18,2.7-0.09,3.601
		c-0.45,1.35,0.27,2.25,0,3.149c-0.36,1.26,0.36,1.98,0,2.61c-0.72,1.439,0.09,1.89,0.18,3.149c0,2.34-0.63,2.25-0.09,3.69
		c0.18,1.26-0.36,3.6,0,5.399c0.09,1.35,0.72,2.88,2.52,2.97c1.08,0.09,1.26,0.271,2.43-1.08c0.36-0.899,0.81-0.99,1.08-1.8
		C374.561,157.166,376.811,158.066,376.271,159.506z M357.282,154.916c0.36-1.08-0.18-1.35-0.09-2.34c0.54-1.35-0.63-1.71,0.09-2.79
		c0.63-0.899-0.45-1.53-0.09-2.88c0.27-2.069-1.35-2.43-2.97-1.979c-0.63,0.27-1.89-0.181-2.7,0.72
		c-1.35,0.899-2.16,0.36-3.24,1.439c-1.17,0.63-2.34,1.44-2.79,2.521c-0.54,1.17-1.53,1.71-1.26,2.79
		c-0.27,0.72,0.09,0.989-0.36,2.159c-0.27,0.9,0.45,1.53,0.45,2.34c0,1.17,0.27,1.71,1.17,2.521c1.08,0.899,2.07,1.89,4.5,2.069
		c1.71-0.09,3.51-0.72,4.23-1.26c0.72-0.72,1.98-1.8,2.61-2.97C357.372,156.536,357.012,155.817,357.282,154.916z"/>
	<path fill="#FFFFFF" d="M430.63,165.086c-0.99,0-1.62,0.09-2.7,0c-0.99-0.091-2.16,0.27-3.24,0.09c-2.34-0.09-2.88-0.36-4.95-0.271
		c-1.53,0.721-2.61,0.181-3.959,0.181c-0.36,0-1.08-0.45-1.62,0.09c-0.81,0.09-1.62,0.09-2.52,0c-1.17-0.181-1.89,0.18-2.79,0
		c-1.44-0.36-1.08-2.7,0.18-2.88c1.44,0.09,2.16,0.27,3.06-0.18c0.9-0.631,0.9-2.341,0.72-4.86c0.09-1.26-0.18-2.25,0.18-3.42
		s-0.45-2.16,0-2.88c0.63-0.899-0.54-1.439-0.09-2.16c0.99-1.71-0.54-2.43,0.18-3.869c0.45-0.99,0-1.891-0.27-2.61
		c-0.09-1.71-0.27-4.68,0-6.659c0.18-2.16-0.36-3.96-0.81-5.851c-0.27-1.17-1.44-0.989-1.62-1.71c-0.27-0.539-2.25-0.359-3.24-0.899
		c-1.08,0.18-2.34,0.36-3.42,0.899c-0.72,0.271-2.7,0.99-3.24,1.53c-1.53,1.17-2.25,1.98-2.52,2.97c-0.18,1.8,0.54,2.97,0,3.69
		c-0.45,1.17-0.27,3.06,0,3.689c0.54,0.72-0.45,2.34,0,3.78c-0.18,0.899,0.45,3.06,0,3.689c-0.54,1.62,0.18,1.89,0,3.689
		c-0.36,1.261-1.44,1.62-0.09,3.33c0,1.351,0,3.061,0.09,4.95c0.09,1.8,0.45,2.34,1.44,2.609c0.27,0.271,0.99,0.181,1.44,0.271
		c0.45,0.18,1.26-0.271,1.62,0.27c0.9,0.63,0.99,2.7-1.26,2.61c-1.89-0.09-2.43-0.271-4.32,0c-2.25,0-3.24-0.54-5.67-0.181
		c-1.62,0.271-2.61-0.27-4.68,0.181c-1.26,0.09-2.34-0.09-3.51-0.09c-0.81,0-1.53,0.18-2.52,0.09c-0.9,0-1.89-1.26-0.54-2.34
		c0.36-0.63,1.26-0.181,1.98-0.36c0.81-0.18,1.62,0,2.34-0.09c0.36,0,1.08-0.18,1.35-0.81c0.27-0.721,0.72-1.71,0.45-2.521
		c-0.18-1.979,0-3.779,0-6.119c1.35-1.71-0.36-2.16,0-4.141c0.18-1.439,0.09-3.149,0-4.59c-0.36-1.26,0.09-2.43,0-4.499
		c-0.18-1.53-0.45-2.431,0-4.5c-0.09-1.8,0.09-3.87,0-5.13c-0.09-1.71-0.54-2.79-1.53-3.06c-1.17-0.36-1.62-0.181-2.97-0.271
		c-1.44,0.271-1.98-2.25-0.27-2.7c0.99-0.18,1.98,0,3.96-0.27c1.62-0.36,2.34,0.09,3.33-0.271c1.62-0.09,2.97,0,4.05-0.539
		c1.53-0.181,1.8-0.181,3.24-0.631c1.26-0.359,1.89,0.36,2.16,0.99c0.18,0.72-0.27,2.34-0.09,4.05c0.09,1.17,0.99,1.08,1.62,0.271
		c0.99-0.811,2.88-2.431,4.14-2.7c0.81-0.54,2.61-1.26,3.6-1.8c0.63-0.271,2.07,0.18,3.51-0.36c0.99,0,2.43-0.63,3.42,0.09
		c0.81,0.63,2.7,0,3.69,0.9c1.26,1.439,1.71,0.63,2.61,1.439c0.81,0.721,1.8,2.16,2.79,2.88c0.72,0.271,0.27,1.351,1.17,2.7
		c0.36,0.9,0.36,2.16,0.54,2.97c0.27,2.88-0.81,3.42,0.27,4.771c0.18,1.979,0.27,4.409-0.09,6.839c0,2.521-0.54,4.05,0,5.58
		c0,2.79,0,6.93,0.09,9.18c0.09,1.8,0.36,2.07,1.62,2.16c0.63,0,1.44-0.09,1.98,0c0.72,0.09,0.99-0.09,1.62,0.18
		C431.89,163.016,431.53,165.086,430.63,165.086z"/>
	<path fill="#FFFFFF" d="M462.76,159.686c0.27,0.36,0.54,0.99,0.54,1.351c-0.09,0.81-0.9,0.989-1.53,1.439
		c-0.36,0.271-0.72,0.54-1.17,0.811c-0.9,0.63-1.71,1.35-2.97,1.709c-1.17,0.54-1.979,0.811-3.24,1.08
		c-1.08,0.181-1.8,0.091-3.51,0.36c-1.53,0.27-3.51-0.54-4.14-0.54c-0.99-0.09-2.52-0.81-3.6-1.439c-0.54-1.44-0.99-0.9-2.25-1.801
		c-1.26-0.63-1.17-2.069-2.07-3.149s-0.54-2.16-0.81-3.24c0.36-0.81-0.27-1.08,0-1.89c-0.09-0.54-0.36-0.99-0.09-2.07
		c0.36-1.439-0.36-1.439-0.09-2.159c0.45-1.26,0-1.8,0.27-3.15c0.36-0.989-0.36-1.8,0.09-2.609c0.63-1.53-0.45-1.62-0.18-3.24
		c0.36-2.069,0.09-2.52,0.09-4.68c-0.09-2.43,0.09-5.67,0.09-7.56c0.27-1.44-0.18-1.89-1.17-1.98c-0.72-0.09-1.62-0.09-2.25,0
		c-0.72,0.091-1.62,0.091-1.62-1.17c0-0.72-0.18-1.26,1.53-1.529c1.26-0.45,1.53,0,2.25-0.63c0.54-0.54,1.979-0.36,2.52-0.99
		c0.9-0.9,1.89-1.08,2.34-1.53c0.72-0.899,1.35-0.989,2.07-2.16c0.45-0.449,0.9-0.81,1.62-1.89c0.81-0.63,0.54-1.26,1.26-2.069
		c0.54-1.351,0.81-1.17,1.08-2.79c0.36-0.9,0.36-1.53,0.72-3.061c0.09-1.079,2.16-0.989,2.07,0.181c-0.09,0.81,0.18,1.8,0,2.79
		c-0.09,1.35-0.45,1.8-0.27,3.51c0.09,0.81-0.54,1.62-0.18,2.43c0.54,0.81-0.18,1.08,0.09,1.8c0.36,0.9,0,1.44,0.18,2.79
		c0.09,1.439,0.9,1.35,2.07,1.439c0.99,0.091,1.17-0.27,2.34,0.091c0.54,0.18,0.63-0.36,1.89-0.181c0.81,0.09,0.99,0.271,2.16,0.181
		c1.26-0.54,1.53,2.789-0.09,2.699c-0.81,0.09-1.26-0.359-1.62-0.18c-1.08,0.54-1.26,0.18-1.98,0.18c-1.71,0-2.07,0.09-2.97,0
		c-1.71,0.09-1.98,0.9-1.98,1.44c-0.18,1.529-0.27,4.229-0.09,5.67c0.18,1.079-0.54,4.409-0.18,5.31c0.36,1.62-0.54,2.43,0.09,4.68
		c0,1.71-0.09,3.689,0,5.58c-0.36,0.899,0.27,3.329-0.09,5.22c-0.18,1.439,0.09,2.069,0.27,2.97c0.18,0.63,0.54,1.08,0.54,1.979
		c0,0.721,0.9,1.351,1.26,1.71c0.81,0.9,1.71,1.08,3.06,0.99c1.35-0.09,1.8,0.09,2.61-0.54c0.18-0.18,0.9-0.36,1.08-0.63
		c0.54-0.72,0.81-0.45,1.53-0.9c0.36-0.18,0.63-0.81,1.35-0.989C462.13,159.236,462.49,159.326,462.76,159.686z"/>
</g>
<g>
</g>
<g>
</g>
<g>
</g>
<g>
</g>
<g>
</g>
<g>
</g>
<g>
</g>
<g>
</g>
<g>
</g>
<g>
</g>
<g>
</g>
<g>
</g>
<g>
</g>
<g>
</g>
<g>
</g>
</svg>
